<mxfile host="app.diagrams.net" modified="2023-03-28T15:51:41.843Z" agent="Mozilla/5.0 (Windows NT 10.0; Win64; x64) AppleWebKit/537.36 (KHTML, like Gecko) Chrome/111.0.0.0 Safari/537.36" etag="lqNyKT5izLiZdE8FnQ8F" version="21.1.1" type="gitlab">
  <diagram name="Page-1" id="03018318-947c-dd8e-b7a3-06fadd420f32">
    <mxGraphModel dx="1985" dy="1075" grid="1" gridSize="10" guides="1" tooltips="1" connect="1" arrows="1" fold="1" page="1" pageScale="1" pageWidth="1100" pageHeight="850" background="none" math="0" shadow="0">
      <root>
        <mxCell id="0" />
        <mxCell id="1" parent="0" />
        <mxCell id="677b7b8949515195-1" value="" style="whiteSpace=wrap;html=1;rounded=0;shadow=0;labelBackgroundColor=none;strokeColor=#000000;strokeWidth=1;fillColor=none;fontFamily=Verdana;fontSize=12;fontColor=#000000;align=center;comic=1;" parent="1" vertex="1">
          <mxGeometry x="20" y="20" width="1060" height="810" as="geometry" />
        </mxCell>
        <mxCell id="677b7b8949515195-2" value="ALL NEWS" style="whiteSpace=wrap;html=1;rounded=0;shadow=0;labelBackgroundColor=none;strokeWidth=1;fontFamily=Verdana;fontSize=28;align=left;comic=1;" parent="1" vertex="1">
          <mxGeometry x="40" y="60" width="190" height="50" as="geometry" />
        </mxCell>
        <mxCell id="677b7b8949515195-8" value="" style="whiteSpace=wrap;html=1;rounded=0;shadow=0;labelBackgroundColor=none;strokeWidth=1;fillColor=none;fontFamily=Verdana;fontSize=12;align=center;comic=1;" parent="1" vertex="1">
          <mxGeometry x="60" y="260" width="320" height="320" as="geometry" />
        </mxCell>
        <mxCell id="677b7b8949515195-9" value="" style="line;strokeWidth=1;html=1;rounded=0;shadow=0;labelBackgroundColor=none;fillColor=none;fontFamily=Verdana;fontSize=14;fontColor=#000000;align=center;comic=1;" parent="1" vertex="1">
          <mxGeometry x="20" y="140" width="1060" height="10" as="geometry" />
        </mxCell>
        <mxCell id="677b7b8949515195-15" value="&lt;div style=&quot;text-align: justify&quot;&gt;&lt;br&gt;&lt;/div&gt;" style="whiteSpace=wrap;html=1;rounded=0;shadow=0;labelBackgroundColor=none;strokeWidth=1;fillColor=none;fontFamily=Verdana;fontSize=12;align=center;verticalAlign=top;spacing=10;comic=1;" parent="1" vertex="1">
          <mxGeometry x="20" y="690" width="1060" height="140" as="geometry" />
        </mxCell>
        <mxCell id="677b7b8949515195-25" value="" style="whiteSpace=wrap;html=1;rounded=0;shadow=0;labelBackgroundColor=none;strokeWidth=1;fillColor=none;fontFamily=Verdana;fontSize=12;align=center;comic=1;" parent="1" vertex="1">
          <mxGeometry x="750" y="260" width="320" height="320" as="geometry" />
        </mxCell>
        <mxCell id="azdYrmXxpXAs5G76wNCQ-1" value="LOGO" style="whiteSpace=wrap;html=1;rounded=0;shadow=0;labelBackgroundColor=none;strokeWidth=1;fontFamily=Verdana;fontSize=28;align=center;comic=1;" vertex="1" parent="1">
          <mxGeometry x="400" y="60" width="190" height="50" as="geometry" />
        </mxCell>
        <mxCell id="azdYrmXxpXAs5G76wNCQ-2" value="SIGN UP" style="whiteSpace=wrap;html=1;rounded=0;shadow=0;labelBackgroundColor=none;strokeWidth=1;fontFamily=Verdana;fontSize=28;align=center;comic=1;" vertex="1" parent="1">
          <mxGeometry x="890" y="60" width="150" height="50" as="geometry" />
        </mxCell>
        <mxCell id="azdYrmXxpXAs5G76wNCQ-3" value="LOGIN" style="whiteSpace=wrap;html=1;rounded=0;shadow=0;labelBackgroundColor=none;strokeWidth=1;fontFamily=Verdana;fontSize=28;align=center;comic=1;" vertex="1" parent="1">
          <mxGeometry x="720" y="60" width="150" height="50" as="geometry" />
        </mxCell>
        <mxCell id="azdYrmXxpXAs5G76wNCQ-4" value="" style="whiteSpace=wrap;html=1;rounded=0;shadow=0;labelBackgroundColor=none;strokeWidth=1;fillColor=none;fontFamily=Verdana;fontSize=12;align=center;comic=1;" vertex="1" parent="1">
          <mxGeometry x="410" y="260" width="320" height="320" as="geometry" />
        </mxCell>
        <mxCell id="azdYrmXxpXAs5G76wNCQ-5" value="NEWS" style="whiteSpace=wrap;html=1;rounded=0;shadow=0;labelBackgroundColor=none;strokeWidth=1;fontFamily=Verdana;fontSize=28;align=center;comic=1;" vertex="1" parent="1">
          <mxGeometry x="180" y="310" width="190" height="50" as="geometry" />
        </mxCell>
        <mxCell id="azdYrmXxpXAs5G76wNCQ-6" value="DETAILS" style="whiteSpace=wrap;html=1;rounded=0;shadow=0;labelBackgroundColor=none;strokeWidth=1;fontFamily=Verdana;fontSize=28;align=center;comic=1;" vertex="1" parent="1">
          <mxGeometry x="90" y="500" width="190" height="50" as="geometry" />
        </mxCell>
        <mxCell id="azdYrmXxpXAs5G76wNCQ-7" value="NEWS" style="whiteSpace=wrap;html=1;rounded=0;shadow=0;labelBackgroundColor=none;strokeWidth=1;fontFamily=Verdana;fontSize=28;align=center;comic=1;" vertex="1" parent="1">
          <mxGeometry x="520" y="310" width="190" height="50" as="geometry" />
        </mxCell>
        <mxCell id="azdYrmXxpXAs5G76wNCQ-8" value="DETAILS" style="whiteSpace=wrap;html=1;rounded=0;shadow=0;labelBackgroundColor=none;strokeWidth=1;fontFamily=Verdana;fontSize=28;align=center;comic=1;" vertex="1" parent="1">
          <mxGeometry x="430" y="500" width="190" height="50" as="geometry" />
        </mxCell>
        <mxCell id="azdYrmXxpXAs5G76wNCQ-9" value="NEWS" style="whiteSpace=wrap;html=1;rounded=0;shadow=0;labelBackgroundColor=none;strokeWidth=1;fontFamily=Verdana;fontSize=28;align=center;comic=1;" vertex="1" parent="1">
          <mxGeometry x="860" y="310" width="190" height="50" as="geometry" />
        </mxCell>
        <mxCell id="azdYrmXxpXAs5G76wNCQ-10" value="DETAILS" style="whiteSpace=wrap;html=1;rounded=0;shadow=0;labelBackgroundColor=none;strokeWidth=1;fontFamily=Verdana;fontSize=28;align=center;comic=1;" vertex="1" parent="1">
          <mxGeometry x="770" y="500" width="190" height="50" as="geometry" />
        </mxCell>
        <mxCell id="azdYrmXxpXAs5G76wNCQ-11" value="LOGO" style="whiteSpace=wrap;html=1;rounded=0;shadow=0;labelBackgroundColor=none;strokeWidth=1;fontFamily=Verdana;fontSize=28;align=center;comic=1;" vertex="1" parent="1">
          <mxGeometry x="60" y="735" width="150" height="25" as="geometry" />
        </mxCell>
        <mxCell id="azdYrmXxpXAs5G76wNCQ-12" value="&lt;font style=&quot;font-size: 18px;&quot;&gt;Agils Software Management System&lt;/font&gt;" style="whiteSpace=wrap;html=1;rounded=0;shadow=0;labelBackgroundColor=none;strokeWidth=1;fontFamily=Verdana;fontSize=28;align=center;comic=1;strokeColor=none;" vertex="1" parent="1">
          <mxGeometry x="60" y="780" width="360" height="25" as="geometry" />
        </mxCell>
        <mxCell id="azdYrmXxpXAs5G76wNCQ-13" value="&lt;font style=&quot;font-size: 18px;&quot;&gt;Â©E-Pharmacist, Spring Semester 2023!&lt;/font&gt;" style="whiteSpace=wrap;html=1;rounded=0;shadow=0;labelBackgroundColor=none;strokeWidth=1;fontFamily=Verdana;fontSize=28;align=center;comic=1;strokeColor=none;" vertex="1" parent="1">
          <mxGeometry x="670" y="780" width="370" height="25" as="geometry" />
        </mxCell>
        <mxCell id="azdYrmXxpXAs5G76wNCQ-15" value="" style="whiteSpace=wrap;html=1;rounded=0;shadow=0;labelBackgroundColor=none;strokeColor=#000000;strokeWidth=1;fillColor=none;fontFamily=Verdana;fontSize=12;fontColor=#000000;align=center;comic=1;" vertex="1" parent="1">
          <mxGeometry x="20" y="910" width="1060" height="960" as="geometry" />
        </mxCell>
        <mxCell id="azdYrmXxpXAs5G76wNCQ-16" value="ALL NEWS" style="whiteSpace=wrap;html=1;rounded=0;shadow=0;labelBackgroundColor=none;strokeWidth=1;fontFamily=Verdana;fontSize=28;align=left;comic=1;" vertex="1" parent="1">
          <mxGeometry x="40" y="950" width="190" height="50" as="geometry" />
        </mxCell>
        <mxCell id="azdYrmXxpXAs5G76wNCQ-18" value="" style="line;strokeWidth=1;html=1;rounded=0;shadow=0;labelBackgroundColor=none;fillColor=none;fontFamily=Verdana;fontSize=14;fontColor=#000000;align=center;comic=1;" vertex="1" parent="1">
          <mxGeometry x="20" y="1030" width="1060" height="10" as="geometry" />
        </mxCell>
        <mxCell id="azdYrmXxpXAs5G76wNCQ-19" value="&lt;div style=&quot;text-align: justify&quot;&gt;&lt;br&gt;&lt;/div&gt;" style="whiteSpace=wrap;html=1;rounded=0;shadow=0;labelBackgroundColor=none;strokeWidth=1;fillColor=none;fontFamily=Verdana;fontSize=12;align=center;verticalAlign=top;spacing=10;comic=1;" vertex="1" parent="1">
          <mxGeometry x="20" y="1750" width="1060" height="120" as="geometry" />
        </mxCell>
        <mxCell id="azdYrmXxpXAs5G76wNCQ-21" value="LOGO" style="whiteSpace=wrap;html=1;rounded=0;shadow=0;labelBackgroundColor=none;strokeWidth=1;fontFamily=Verdana;fontSize=28;align=center;comic=1;" vertex="1" parent="1">
          <mxGeometry x="850" y="950" width="190" height="50" as="geometry" />
        </mxCell>
        <mxCell id="azdYrmXxpXAs5G76wNCQ-24" value="" style="whiteSpace=wrap;html=1;rounded=0;shadow=0;labelBackgroundColor=none;strokeWidth=1;fillColor=none;fontFamily=Verdana;fontSize=12;align=center;comic=1;" vertex="1" parent="1">
          <mxGeometry x="150" y="1045" width="770" height="675" as="geometry" />
        </mxCell>
        <mxCell id="azdYrmXxpXAs5G76wNCQ-27" value="CREATE A NEW ACCOUNT" style="whiteSpace=wrap;html=1;rounded=0;shadow=0;labelBackgroundColor=none;strokeWidth=1;fontFamily=Verdana;fontSize=28;align=center;comic=1;strokeColor=none;" vertex="1" parent="1">
          <mxGeometry x="280" y="1050" width="520" height="40" as="geometry" />
        </mxCell>
        <mxCell id="azdYrmXxpXAs5G76wNCQ-31" value="LOGO" style="whiteSpace=wrap;html=1;rounded=0;shadow=0;labelBackgroundColor=none;strokeWidth=1;fontFamily=Verdana;fontSize=28;align=center;comic=1;" vertex="1" parent="1">
          <mxGeometry x="70" y="1780" width="150" height="25" as="geometry" />
        </mxCell>
        <mxCell id="azdYrmXxpXAs5G76wNCQ-32" value="&lt;font style=&quot;font-size: 18px;&quot;&gt;Agils Software Management System&lt;/font&gt;" style="whiteSpace=wrap;html=1;rounded=0;shadow=0;labelBackgroundColor=none;strokeWidth=1;fontFamily=Verdana;fontSize=28;align=center;comic=1;strokeColor=none;" vertex="1" parent="1">
          <mxGeometry x="55" y="1830" width="360" height="25" as="geometry" />
        </mxCell>
        <mxCell id="azdYrmXxpXAs5G76wNCQ-33" value="&lt;font style=&quot;font-size: 18px;&quot;&gt;Â©E-Pharmacist, Spring Semester 2023!&lt;/font&gt;" style="whiteSpace=wrap;html=1;rounded=0;shadow=0;labelBackgroundColor=none;strokeWidth=1;fontFamily=Verdana;fontSize=28;align=center;comic=1;strokeColor=none;" vertex="1" parent="1">
          <mxGeometry x="690" y="1820" width="370" height="25" as="geometry" />
        </mxCell>
        <mxCell id="azdYrmXxpXAs5G76wNCQ-54" value="Name:" style="whiteSpace=wrap;html=1;rounded=0;shadow=0;labelBackgroundColor=none;strokeWidth=1;fontFamily=Verdana;fontSize=28;align=left;comic=1;strokeColor=none;" vertex="1" parent="1">
          <mxGeometry x="185" y="1100" width="110" height="30" as="geometry" />
        </mxCell>
        <mxCell id="azdYrmXxpXAs5G76wNCQ-55" value="" style="whiteSpace=wrap;html=1;rounded=0;shadow=0;labelBackgroundColor=none;strokeWidth=1;fontFamily=Verdana;fontSize=28;align=left;comic=1;" vertex="1" parent="1">
          <mxGeometry x="180" y="1140" width="600" height="50" as="geometry" />
        </mxCell>
        <mxCell id="azdYrmXxpXAs5G76wNCQ-56" value="Email address" style="whiteSpace=wrap;html=1;rounded=0;shadow=0;labelBackgroundColor=none;strokeWidth=1;fontFamily=Verdana;fontSize=28;align=left;comic=1;strokeColor=none;" vertex="1" parent="1">
          <mxGeometry x="180" y="1210" width="200" height="30" as="geometry" />
        </mxCell>
        <mxCell id="azdYrmXxpXAs5G76wNCQ-58" value="" style="whiteSpace=wrap;html=1;rounded=0;shadow=0;labelBackgroundColor=none;strokeWidth=1;fontFamily=Verdana;fontSize=28;align=left;comic=1;" vertex="1" parent="1">
          <mxGeometry x="180" y="1250" width="600" height="50" as="geometry" />
        </mxCell>
        <mxCell id="azdYrmXxpXAs5G76wNCQ-59" value="Password" style="whiteSpace=wrap;html=1;rounded=0;shadow=0;labelBackgroundColor=none;strokeWidth=1;fontFamily=Verdana;fontSize=28;align=left;comic=1;strokeColor=none;" vertex="1" parent="1">
          <mxGeometry x="180" y="1320" width="110" height="30" as="geometry" />
        </mxCell>
        <mxCell id="azdYrmXxpXAs5G76wNCQ-60" value="" style="whiteSpace=wrap;html=1;rounded=0;shadow=0;labelBackgroundColor=none;strokeWidth=1;fontFamily=Verdana;fontSize=28;align=left;comic=1;" vertex="1" parent="1">
          <mxGeometry x="180" y="1360" width="600" height="50" as="geometry" />
        </mxCell>
        <mxCell id="azdYrmXxpXAs5G76wNCQ-63" value="Confirm Password" style="whiteSpace=wrap;html=1;rounded=0;shadow=0;labelBackgroundColor=none;strokeWidth=1;fontFamily=Verdana;fontSize=28;align=left;comic=1;strokeColor=none;" vertex="1" parent="1">
          <mxGeometry x="180" y="1420" width="280" height="30" as="geometry" />
        </mxCell>
        <mxCell id="azdYrmXxpXAs5G76wNCQ-64" value="" style="whiteSpace=wrap;html=1;rounded=0;shadow=0;labelBackgroundColor=none;strokeWidth=1;fontFamily=Verdana;fontSize=28;align=left;comic=1;" vertex="1" parent="1">
          <mxGeometry x="180" y="1460" width="600" height="50" as="geometry" />
        </mxCell>
        <mxCell id="azdYrmXxpXAs5G76wNCQ-67" value="&lt;font style=&quot;font-size: 28px;&quot;&gt;Role&lt;/font&gt;" style="whiteSpace=wrap;html=1;rounded=0;shadow=0;labelBackgroundColor=none;strokeWidth=1;fontFamily=Verdana;fontSize=28;align=left;comic=1;strokeColor=none;" vertex="1" parent="1">
          <mxGeometry x="180" y="1530" width="80" height="30" as="geometry" />
        </mxCell>
        <mxCell id="azdYrmXxpXAs5G76wNCQ-68" value="&lt;blockquote style=&quot;margin: 0 0 0 40px; border: none; padding: 0px;&quot;&gt;SIGN UP&lt;/blockquote&gt;" style="whiteSpace=wrap;html=1;rounded=0;shadow=0;labelBackgroundColor=none;strokeWidth=1;fontFamily=Verdana;fontSize=28;align=center;comic=1;fillColor=#6666FF;" vertex="1" parent="1">
          <mxGeometry x="185" y="1650" width="215" height="50" as="geometry" />
        </mxCell>
        <mxCell id="azdYrmXxpXAs5G76wNCQ-83" value="" style="edgeStyle=orthogonalEdgeStyle;rounded=0;orthogonalLoop=1;jettySize=auto;html=1;" edge="1" parent="1" source="azdYrmXxpXAs5G76wNCQ-70" target="azdYrmXxpXAs5G76wNCQ-78">
          <mxGeometry relative="1" as="geometry" />
        </mxCell>
        <mxCell id="azdYrmXxpXAs5G76wNCQ-70" value="User" style="whiteSpace=wrap;html=1;rounded=0;shadow=0;labelBackgroundColor=none;strokeWidth=1;fontFamily=Verdana;fontSize=28;align=left;comic=1;strokeColor=none;" vertex="1" parent="1">
          <mxGeometry x="210" y="1580" width="80" height="30" as="geometry" />
        </mxCell>
        <mxCell id="azdYrmXxpXAs5G76wNCQ-82" value="" style="edgeStyle=orthogonalEdgeStyle;rounded=0;orthogonalLoop=1;jettySize=auto;html=1;" edge="1" parent="1" source="azdYrmXxpXAs5G76wNCQ-78" target="azdYrmXxpXAs5G76wNCQ-70">
          <mxGeometry relative="1" as="geometry" />
        </mxCell>
        <mxCell id="azdYrmXxpXAs5G76wNCQ-71" value="&lt;font style=&quot;font-size: 28px;&quot;&gt;Subject Matter Expert&lt;/font&gt;" style="whiteSpace=wrap;html=1;rounded=0;shadow=0;labelBackgroundColor=none;strokeWidth=1;fontFamily=Verdana;fontSize=28;align=left;comic=1;strokeColor=none;" vertex="1" parent="1">
          <mxGeometry x="350" y="1580" width="315" height="30" as="geometry" />
        </mxCell>
        <mxCell id="azdYrmXxpXAs5G76wNCQ-72" value="&lt;font style=&quot;font-size: 28px;&quot;&gt;Pharmacist&lt;/font&gt;" style="whiteSpace=wrap;html=1;rounded=0;shadow=0;labelBackgroundColor=none;strokeWidth=1;fontFamily=Verdana;fontSize=28;align=left;comic=1;strokeColor=none;" vertex="1" parent="1">
          <mxGeometry x="720" y="1580" width="180" height="30" as="geometry" />
        </mxCell>
        <mxCell id="azdYrmXxpXAs5G76wNCQ-77" value="" style="ellipse;whiteSpace=wrap;html=1;aspect=fixed;fillColor=#E6E6E6;" vertex="1" parent="1">
          <mxGeometry x="175" y="1585" width="20" height="20" as="geometry" />
        </mxCell>
        <mxCell id="azdYrmXxpXAs5G76wNCQ-79" value="" style="ellipse;whiteSpace=wrap;html=1;aspect=fixed;fillColor=#E6E6E6;" vertex="1" parent="1">
          <mxGeometry x="690" y="1585" width="20" height="20" as="geometry" />
        </mxCell>
        <mxCell id="azdYrmXxpXAs5G76wNCQ-84" value="" style="edgeStyle=orthogonalEdgeStyle;rounded=0;orthogonalLoop=1;jettySize=auto;html=1;" edge="1" parent="1" source="azdYrmXxpXAs5G76wNCQ-71" target="azdYrmXxpXAs5G76wNCQ-78">
          <mxGeometry relative="1" as="geometry">
            <mxPoint x="350" y="1595" as="sourcePoint" />
            <mxPoint x="290" y="1595" as="targetPoint" />
          </mxGeometry>
        </mxCell>
        <mxCell id="azdYrmXxpXAs5G76wNCQ-78" value="" style="ellipse;whiteSpace=wrap;html=1;aspect=fixed;fillColor=#E6E6E6;" vertex="1" parent="1">
          <mxGeometry x="320" y="1585" width="20" height="20" as="geometry" />
        </mxCell>
      </root>
    </mxGraphModel>
  </diagram>
</mxfile>
